<mxfile>
  <diagram name="Arquitetura do Projeto">
    <mxGraphModel dx="1000" dy="1000" grid="1" gridSize="10" guides="1" tooltips="1" connect="1" arrows="1" fold="1" page="1" pageScale="1" pageWidth="827" pageHeight="1169" math="0" shadow="0">
      <root>
        <mxCell id="0" />
        <mxCell id="1" parent="0" />

        <!-- Google Cloud Storage -->
        <mxCell id="2" value="Google Cloud Storage" style="shape=ellipse;fillColor=#f8cecc;strokeColor=#b85450;" vertex="1" parent="1">
          <mxGeometry x="100" y="100" width="120" height="60" as="geometry" />
        </mxCell>

        <!-- Google Cloud Functions -->
        <mxCell id="3" value="Google Cloud Functions" style="shape=ellipse;fillColor=#d5e8d4;strokeColor=#82b366;" vertex="1" parent="1">
          <mxGeometry x="300" y="100" width="120" height="60" as="geometry" />
        </mxCell>

        <!-- Google Cloud Scheduler -->
        <mxCell id="4" value="Google Cloud Scheduler" style="shape=ellipse;fillColor=#dae8fc;strokeColor=#6c8ebf;" vertex="1" parent="1">
          <mxGeometry x="500" y="100" width="120" height="60" as="geometry" />
        </mxCell>

        <!-- Google Secret Manager -->
        <mxCell id="5" value="Google Secret Manager" style="shape=ellipse;fillColor=#fff2cc;strokeColor=#d6b656;" vertex="1" parent="1">
          <mxGeometry x="300" y="300" width="120" height="60" as="geometry" />
        </mxCell>

        <!-- Google BigQuery -->
        <mxCell id="6" value="Google BigQuery" style="shape=ellipse;fillColor=#e1d5e7;strokeColor=#9673a6;" vertex="1" parent="1">
          <mxGeometry x="500" y="300" width="120" height="60" as="geometry" />
        </mxCell>

        <!-- Connections -->
        <mxCell id="7" edge="1" source="2" target="3" style="edgeStyle=orthogonalEdgeStyle;strokeColor=#000000;">
          <mxGeometry relative="1" as="geometry" />
        </mxCell>

        <mxCell id="8" edge="1" source="3" target="4" style="edgeStyle=orthogonalEdgeStyle;strokeColor=#000000;">
          <mxGeometry relative="1" as="geometry" />
        </mxCell>

        <mxCell id="9" edge="1" source="3" target="5" style="edgeStyle=orthogonalEdgeStyle;strokeColor=#000000;">
          <mxGeometry relative="1" as="geometry" />
        </mxCell>

        <mxCell id="10" edge="1" source="3" target="6" style="edgeStyle=orthogonalEdgeStyle;strokeColor=#000000;">
          <mxGeometry relative="1" as="geometry" />
        </mxCell>
      </root>
    </mxGraphModel>
  </diagram>
</mxfile>